<svg xmlns="http://www.w3.org/2000/svg" xmlns:xlink="http://www.w3.org/1999/xlink" version="1.1" id="Layer_1" x="0px" y="0px" style="enable-background:new 0 0 360 360;" xml:space="preserve" viewBox="21.64 120.27 317.2 101.97">
<style type="text/css">
	.st0{fill:#113045;}
</style>
<g>
	<path class="st0" d="M91.61,154.6c0.02-0.56-0.22-1.11-0.64-1.48L58.1,120.88c-0.82-0.81-2.14-0.81-2.97,0l-32.88,32.24   c-0.81,0.82-0.81,2.14,0,2.97l0,0l7,6.79l-7,6.79c-0.81,0.82-0.81,2.14,0,2.97l0,0l16.97,16.54c0.82,0.81,2.14,0.81,2.97,0   l14.42-14.21l14.42,14.21c0.82,0.81,2.14,0.81,2.97,0l16.76-16.54c0.81-0.82,0.81-2.14,0-2.97l0,0l-6.58-7l7-6.79   C91.49,155.52,91.64,155.07,91.61,154.6z M86.52,171.15l-13.79,13.58l-14.42-14.21c-0.82-0.81-2.14-0.81-2.97,0l-14.42,14.21   l-14-13.58l5.51-5.3l7,6.79c0.82,0.81,2.14,0.81,2.97,0l14.42-14.21l14.42,14.21c0.82,0.81,2.14,0.81,2.97,0l7-6.79L86.52,171.15z    M35.4,162.87l21.42-21l21.42,21l-5.51,5.3l-14.42-14.21c-0.82-0.81-2.14-0.81-2.97,0l-14.42,14.21L35.4,162.87z M81,159.91   L58.1,137.42c-0.82-0.81-2.14-0.81-2.97,0l-22.91,22.48l-5.51-5.3l29.91-29.27l29.91,29.27L81,159.91z"/>
	<path class="st0" d="M58.1,180.9c-0.82-0.81-2.14-0.81-2.97,0l-19.09,18.88c-0.81,0.82-0.81,2.14,0,2.97l0,0l19.09,18.88   c0.82,0.81,2.14,0.81,2.97,0l19.09-18.88c0.81-0.82,0.81-2.14,0-2.97l0,0L58.1,180.9z M56.61,216.96l-16.12-15.7l7-6.79l9.12,8.91   l9.12-8.91l7,6.79L56.61,216.96z"/>
</g>
<g>
	<path class="st0" d="M126.32,182.44c-5.94,0-9.18-4.86-9.18-12.42c0-7.56,3.24-12.42,9.18-12.42c2.93-0.13,5.67,1.45,7.02,4.05   l4.59-2.7c-2.35-4.17-6.83-6.67-11.61-6.48c-8.91,0-14.31,7.29-14.31,17.55c0,10.26,5.67,17.55,14.31,17.55   c4.78,0.17,9.25-2.33,11.61-6.48l-4.32-2.7C132.12,180.98,129.31,182.54,126.32,182.44z"/>
	<path class="st0" d="M159.26,152.46c-8.64,0-14.58,7.02-14.58,17.55s5.94,17.55,14.31,17.55c8.37,0,14.58-7.02,14.58-17.55   S167.91,152.46,159.26,152.46z M159.26,182.44c-5.4,0-9.45-4.86-9.45-12.42c0-7.56,3.78-12.42,9.18-12.42   c5.4,0,9.45,4.86,9.45,12.42C168.45,177.58,164.67,182.44,159.26,182.44z"/>
	<path class="st0" d="M199.77,171.1c-0.87,1.92-1.59,3.91-2.16,5.94c-0.54-1.35-1.62-3.78-2.43-5.94L187.62,153h-5.13v34.03h4.86   V163c0.54,1.08,1.35,3.24,2.16,5.4l8.1,19.17l8.37-19.17c0.81-1.76,1.54-3.56,2.16-5.4v24.03h4.59V153h-5.4L199.77,171.1z"/>
	<path class="st0" d="M237.04,153h-14.31v34.03h5.13v-12.69h9.18c6.48,0,11.34-3.78,11.34-10.8S243.52,153,237.04,153z    M237.04,169.48h-9.18v-11.61h9.18c2.97-0.31,5.63,1.83,5.94,4.8c0.04,0.38,0.04,0.76,0,1.14c0.28,2.86-1.81,5.42-4.67,5.7   C237.88,169.55,237.46,169.54,237.04,169.48z"/>
	<path class="st0" d="M261.07,153l-12.15,34.03h5.13l2.7-8.1h13.5l2.97,8.1h5.4L266.2,153H261.07z M258.37,174.34l2.7-7.83   c0.81-2.7,2.16-6.48,2.43-7.83c0.54,1.35,1.89,5.4,2.7,7.83l2.7,7.83H258.37z"/>
	<path class="st0" d="M297.53,167.05c-5.94-1.89-7.29-2.97-7.29-5.4c0-2.43,1.62-4.32,5.67-4.32c2.95-0.08,5.8,1.1,7.83,3.24   l3.51-3.78c-2.94-2.93-6.92-4.58-11.07-4.59c-6.21,0-11.34,3.51-11.34,9.45s3.51,7.83,10.53,9.99c5.67,1.62,7.83,2.97,7.83,5.67   c0,3.24-2.16,4.86-7.02,4.86c-3.38-0.14-6.58-1.59-8.91-4.05l-3.78,3.51c3,3.58,7.48,5.58,12.15,5.4c8.64,0,12.69-4.05,12.69-10.26   S304.28,168.94,297.53,167.05z"/>
	<path class="st0" d="M327.77,167.05c-5.94-1.89-7.56-2.97-7.56-5.4c0-2.43,1.62-4.32,5.67-4.32c2.95-0.08,5.8,1.1,7.83,3.24   l3.51-3.78c-2.94-2.93-6.92-4.58-11.07-4.59c-6.21,0-11.07,3.51-11.07,9.45s3.51,7.83,10.53,9.99c5.67,1.62,7.83,2.97,7.83,5.67   c0,3.24-2.16,4.86-7.02,4.86c-3.38-0.14-6.58-1.59-8.91-4.05l-3.51,3.51c3,3.58,7.48,5.58,12.15,5.4c8.64,0,12.69-4.05,12.69-10.26   S334.52,168.94,327.77,167.05z"/>
</g>
<g>
	<polygon class="st0" points="127.2,203.2 131.46,203.2 131.46,201.45 127.2,201.45 127.2,198.43 132.23,198.43 132.23,196.67    125.09,196.67 125.09,208.45 132.41,208.45 132.41,206.69 127.2,206.69  "/>
	<path class="st0" d="M147.41,196.67h-2.23l-1.25,2.62c-0.26,0.54-0.5,1.09-0.8,1.8h-0.07c-0.36-0.71-0.61-1.26-0.89-1.8l-1.32-2.62   h-2.34l3.16,5.71l-3.37,6.08h2.23l1.41-2.78c0.28-0.6,0.57-1.2,0.88-1.92h0.07c0.35,0.72,0.65,1.32,0.95,1.92l1.45,2.78h2.34   l-3.37-5.97L147.41,196.67z"/>
	<path class="st0" d="M157.82,196.67h-3.74v11.78h2.1v-4.33h1.7c2.55,0,4.51-1.19,4.51-3.82   C162.4,197.58,160.45,196.67,157.82,196.67z M157.72,202.45h-1.53v-4.11h1.46c1.76,0,2.68,0.5,2.68,1.96   C160.33,201.75,159.49,202.45,157.72,202.45z"/>
	<polygon class="st0" points="171.45,203.2 175.71,203.2 175.71,201.45 171.45,201.45 171.45,198.43 176.48,198.43 176.48,196.67    169.35,196.67 169.35,208.45 176.66,208.45 176.66,206.69 171.45,206.69  "/>
	<path class="st0" d="M192.18,200.16c0-2.63-1.9-3.5-4.37-3.5h-4v11.78h2.1v-4.6h1.81l2.55,4.6h2.36l-2.84-4.92   C191.22,203.04,192.18,201.95,192.18,200.16z M185.92,198.34h1.68c1.63,0,2.51,0.47,2.51,1.82c0,1.34-0.88,2.01-2.51,2.01h-1.68   V198.34z"/>
	<rect x="199.26" y="196.67" class="st0" width="2.1" height="11.78"/>
	<polygon class="st0" points="211.19,203.2 215.45,203.2 215.45,201.45 211.19,201.45 211.19,198.43 216.22,198.43 216.22,196.67    209.08,196.67 209.08,208.45 216.4,208.45 216.4,206.69 211.19,206.69  "/>
	<path class="st0" d="M230.43,201.78c0,1.31,0.17,2.8,0.27,4.02h-0.07l-1.23-2.51l-3.69-6.62h-2.16v11.78h2v-5.16   c0-1.31-0.17-2.73-0.27-3.98h0.07l1.23,2.5l3.69,6.63h2.16v-11.78h-2V201.78z"/>
	<path class="st0" d="M244.96,206.85c-1.99,0-3.26-1.63-3.26-4.32c0-2.64,1.39-4.27,3.31-4.27c0.93,0,1.64,0.42,2.25,1.02l1.13-1.35   c-0.75-0.79-1.93-1.49-3.42-1.49c-3,0-5.43,2.29-5.43,6.15c0,3.9,2.36,6.07,5.35,6.07c1.54,0,2.77-0.61,3.74-1.72l-1.12-1.31   C246.82,206.37,246.01,206.85,244.96,206.85z"/>
	<polygon class="st0" points="257.42,203.2 261.68,203.2 261.68,201.45 257.42,201.45 257.42,198.43 262.45,198.43 262.45,196.67    255.31,196.67 255.31,208.45 262.63,208.45 262.63,206.69 257.42,206.69  "/>
	<polygon class="st0" points="280.22,196.67 278.12,196.67 278.12,208.45 285.15,208.45 285.15,206.69 280.22,206.69  "/>
	<path class="st0" d="M294.22,196.67l-3.87,11.78h2.15l0.93-3.19h3.98l0.92,3.19h2.23l-3.87-11.78H294.22z M293.9,203.62l0.42-1.44   c0.38-1.25,0.73-2.58,1.05-3.88h0.07c0.35,1.29,0.7,2.64,1.07,3.88l0.41,1.44H293.9z"/>
	<path class="st0" d="M312.99,202.2v-0.07c1.04-0.36,1.65-1.44,1.65-2.55c0-2.16-1.79-2.9-4.23-2.9h-3.79v11.78h4.1   c2.61,0,4.56-1.1,4.56-3.46C315.27,203.4,314.31,202.49,312.99,202.2z M308.72,198.3h1.55c1.54,0,2.31,0.43,2.31,1.57   c0,1.02-0.7,1.66-2.36,1.66h-1.5V198.3z M310.5,206.82h-1.78v-3.73h1.78c1.77,0,2.71,0.54,2.71,1.78   C313.21,206.2,312.24,206.82,310.5,206.82z"/>
	<path class="st0" d="M327.18,201.99l-1.6-0.67c-0.98-0.4-1.89-0.74-1.89-1.67c0-0.86,0.73-1.38,1.86-1.38   c1.02,0,1.82,0.37,2.58,1.01l1.08-1.33c-0.93-0.93-2.27-1.5-3.66-1.5c-2.31,0-3.98,1.44-3.98,3.32c0,1.72,1.23,2.64,2.4,3.12   l1.62,0.7c1.08,0.45,1.84,0.76,1.84,1.73c0,0.92-0.73,1.52-2.07,1.52c-1.1,0-2.24-0.54-3.09-1.34l-1.23,1.43   c1.12,1.1,2.67,1.73,4.27,1.73c2.66,0,4.26-1.59,4.26-3.5C329.58,203.46,328.6,202.57,327.18,201.99z"/>
</g>
</svg>